<svg xmlns="http://www.w3.org/2000/svg" xmlns:xlink="http://www.w3.org/1999/xlink" width="500" zoomAndPan="magnify" viewBox="0 0 375 374.999991" height="500" preserveAspectRatio="xMidYMid meet" version="1.0"><defs><g/><clipPath id="250fe78f9c"><path d="M 33.507812 200.605469 L 350.742188 200.605469 L 350.742188 237.679688 L 33.507812 237.679688 Z M 33.507812 200.605469 " clip-rule="nonzero"/></clipPath></defs><g fill="#3b3937" fill-opacity="1"><g transform="translate(176.410085, 273.355588)"><g><path d="M 6.359375 0 L 6.359375 -1.8125 L 10.1875 -1.8125 C 14.425781 -1.8125 17.726562 -2.78125 20.09375 -4.71875 C 22.457031 -6.664062 23.640625 -9.878906 23.640625 -14.359375 L 23.640625 -115.796875 C 23.640625 -120.160156 22.457031 -123.28125 20.09375 -125.15625 C 17.726562 -127.039062 14.425781 -127.984375 10.1875 -127.984375 L 6.359375 -127.984375 L 6.359375 -129.796875 L 100.359375 -129.796875 L 101.4375 -97.625 L 99.625 -97.625 L 99.265625 -103.625 C 98.660156 -112.71875 96.382812 -119.050781 92.4375 -122.625 C 88.5 -126.195312 81.925781 -127.984375 72.71875 -127.984375 L 44.90625 -127.984375 L 44.90625 -68.90625 L 89.8125 -68.90625 L 89.8125 -67.078125 L 44.90625 -67.078125 L 44.90625 -1.8125 L 77.625 -1.8125 C 87.320312 -1.8125 94.226562 -3.597656 98.34375 -7.171875 C 102.46875 -10.753906 104.832031 -17.085938 105.4375 -26.171875 L 105.8125 -32.171875 L 107.625 -32.171875 L 106.34375 0 Z M 6.359375 0 "/></g></g></g><g fill="#3b3937" fill-opacity="1"><g transform="translate(68.055711, 216.929235)"><g><path d="M 0.1875 0 L 0.1875 -1.8125 L 6 -1.8125 C 9.757812 -1.8125 12.726562 -2.84375 14.90625 -4.90625 C 17.082031 -6.96875 19.082031 -10.601562 20.90625 -15.8125 L 61.265625 -129.796875 L 72.90625 -129.796875 L 117.078125 -12.359375 C 118.648438 -8.359375 120.285156 -5.597656 121.984375 -4.078125 C 123.679688 -2.566406 125.925781 -1.8125 128.71875 -1.8125 L 130.53125 -1.8125 L 130.53125 0 L 77.8125 0 L 77.8125 -1.8125 L 83.625 -1.8125 C 87.75 -1.8125 90.71875 -2.328125 92.53125 -3.359375 C 94.351562 -4.390625 95.265625 -6.238281 95.265625 -8.90625 C 95.265625 -9.875 95.140625 -11.054688 94.890625 -12.453125 C 94.648438 -13.847656 94.226562 -15.394531 93.625 -17.09375 L 82.71875 -47.265625 L 34.171875 -47.265625 L 24 -18.71875 C 23.394531 -16.90625 22.910156 -15.300781 22.546875 -13.90625 C 22.179688 -12.507812 22 -11.207031 22 -10 C 22 -6.96875 23.238281 -4.84375 25.71875 -3.625 C 28.207031 -2.414062 32.238281 -1.8125 37.8125 -1.8125 L 44.359375 -1.8125 L 44.359375 0 Z M 34.71875 -49.078125 L 81.984375 -49.078125 L 69.265625 -83.984375 C 67.203125 -89.679688 65.203125 -95.410156 63.265625 -101.171875 C 61.328125 -106.929688 59.75 -112.234375 58.53125 -117.078125 C 56.84375 -111.984375 55.175781 -107.132812 53.53125 -102.53125 C 51.894531 -97.925781 50.050781 -92.65625 48 -86.71875 Z M 34.71875 -49.078125 "/></g></g></g><g clip-path="url(#250fe78f9c)"><path fill="#f4f4f4" d="M 33.507812 200.605469 L 350.800781 200.605469 L 350.800781 237.679688 L 33.507812 237.679688 Z M 33.507812 200.605469 " fill-opacity="1" fill-rule="nonzero"/></g><g fill="#b4993c" fill-opacity="1"><g transform="translate(94.820572, 227.124491)"><g><path d="M 20.238281 -4.734375 C 20.957031 -5.957031 21.425781 -5.660156 22.445312 -5.421875 C 23.667969 -4.953125 24.8125 -4.515625 25.847656 -4.136719 C 26.175781 -4.011719 26.398438 -3.746094 26.445312 -3.402344 C 26.710938 -1.472656 27.117188 -0.453125 27.746094 -0.25 C 27.855469 -0.203125 27.964844 -0.21875 28.058594 -0.265625 C 28.152344 -0.3125 28.230469 -0.40625 28.261719 -0.5 C 28.324219 -0.722656 28.214844 -0.957031 27.996094 -1.035156 C 27.730469 -1.128906 27.523438 -1.753906 27.367188 -2.710938 C 27.320312 -2.914062 27.398438 -3.121094 27.558594 -3.246094 C 27.699219 -3.371094 27.917969 -3.417969 28.105469 -3.355469 C 29.171875 -2.960938 30.300781 -2.726562 31.445312 -2.664062 C 31.539062 -2.664062 31.648438 -2.710938 31.726562 -2.789062 C 31.804688 -2.867188 31.835938 -2.976562 31.835938 -3.089844 C 31.835938 -3.199219 31.789062 -3.308594 31.710938 -3.371094 C 31.632812 -3.449219 31.523438 -3.496094 31.414062 -3.496094 C 30.144531 -3.589844 28.90625 -3.886719 27.714844 -4.359375 C 27.367188 -4.46875 27.117188 -4.78125 27.085938 -5.140625 C 26.835938 -8.417969 26.804688 -12.820312 26.789062 -15.28125 C 26.773438 -18.714844 26.742188 -20.046875 26.585938 -20.425781 C 26.523438 -20.597656 26.367188 -20.707031 26.191406 -20.691406 C 26.003906 -20.675781 25.863281 -20.550781 25.816406 -20.378906 C 24.890625 -17.039062 23.746094 -13.761719 22.382812 -10.582031 C 21.929688 -9.546875 21.492188 -8.605469 21.035156 -7.726562 C 20.832031 -7.320312 20.332031 -7.132812 19.90625 -7.289062 C 14.765625 -9.265625 8.886719 -11.378906 4.390625 -11.726562 C 2.648438 -11.851562 1.519531 -11.535156 1.035156 -10.800781 C 0.628906 -10.171875 0.707031 -9.34375 1.253906 -8.324219 C 2.976562 -5.171875 9.625 -0.15625 14.28125 -0.15625 C 16.472656 -0.15625 18.496094 -2.085938 20.238281 -4.734375 Z M 3.621094 -10.925781 C 3.839844 -10.925781 4.074219 -10.925781 4.328125 -10.910156 C 8.605469 -10.582031 14.234375 -8.589844 19.21875 -6.675781 C 19.46875 -6.582031 19.671875 -6.363281 19.75 -6.113281 C 19.84375 -5.847656 19.796875 -5.566406 19.65625 -5.328125 C 17.824219 -2.460938 16.003906 -0.988281 14.28125 -0.988281 C 10.265625 -0.988281 3.746094 -5.46875 1.976562 -8.714844 C 1.707031 -9.21875 1.441406 -9.90625 1.722656 -10.34375 C 1.960938 -10.722656 2.632812 -10.925781 3.621094 -10.925781 Z M 25.644531 -16.945312 C 25.753906 -17.273438 25.957031 -17.210938 25.957031 -16.851562 C 25.957031 -16.347656 25.957031 -15.816406 25.972656 -15.28125 C 25.988281 -11.425781 26.050781 -8.355469 26.191406 -6.019531 C 26.222656 -5.753906 26.097656 -5.519531 25.894531 -5.359375 C 25.691406 -5.203125 25.425781 -5.171875 25.191406 -5.265625 C 24.203125 -5.644531 23.136719 -6.050781 22.039062 -6.472656 L 21.425781 -6.707031 C 23.136719 -9.984375 24.546875 -13.417969 25.644531 -16.945312 Z M 25.644531 -16.945312 "/></g></g></g><g fill="#b4993c" fill-opacity="1"><g transform="translate(127.47275, 227.124491)"><g><path d="M 11.898438 -3.917969 C 11.820312 -3.996094 11.710938 -4.042969 11.597656 -4.042969 C 11.488281 -4.042969 11.394531 -4.011719 11.316406 -3.933594 C 8.996094 -1.707031 5.613281 -2.460938 3.339844 -3.730469 C 3.292969 -3.902344 3.214844 -4.058594 3.105469 -4.199219 C 2.804688 -4.546875 2.320312 -4.671875 1.914062 -4.484375 C 1.769531 -4.4375 1.660156 -4.3125 1.644531 -4.152344 C 1.613281 -4.011719 1.675781 -3.855469 1.800781 -3.761719 C 1.929688 -3.667969 2.070312 -3.558594 2.226562 -3.464844 C 2.492188 -3.292969 2.632812 -2.992188 2.585938 -2.679688 C 2.523438 -2.273438 2.398438 -1.882812 2.179688 -1.519531 C 2.070312 -1.316406 1.914062 -1.144531 1.722656 -0.988281 C 1.472656 -0.800781 1.144531 -0.753906 0.847656 -0.878906 C 0.546875 -0.988281 0.34375 -1.253906 0.28125 -1.566406 C 0.21875 -2.023438 0.21875 -2.492188 0.265625 -2.960938 C 0.28125 -2.960938 0.296875 -2.976562 0.3125 -2.992188 C 1.691406 -4.214844 6.222656 -11.175781 5.375 -12.964844 C 5.171875 -13.371094 4.71875 -13.574219 4.277344 -13.464844 C 2.617188 -13.199219 0.109375 -7.273438 -0.4375 -3.855469 C -0.785156 -1.753906 -0.515625 -0.453125 0.359375 0.03125 L 0.515625 0.078125 C 0.660156 0.109375 0.800781 0.125 0.941406 0.125 C 1.753906 0.09375 2.507812 -0.359375 2.882812 -1.097656 C 3.074219 -1.394531 3.214844 -1.738281 3.308594 -2.085938 C 3.339844 -2.242188 3.464844 -2.382812 3.605469 -2.445312 C 3.761719 -2.523438 3.933594 -2.523438 4.074219 -2.460938 C 6.503906 -1.441406 9.609375 -1.160156 11.882812 -3.339844 C 11.960938 -3.417969 12.007812 -3.527344 12.007812 -3.621094 C 12.007812 -3.730469 11.976562 -3.839844 11.898438 -3.917969 Z M 4.40625 -12.648438 C 4.4375 -12.648438 4.484375 -12.648438 4.515625 -12.648438 C 4.609375 -12.648438 4.625 -12.617188 4.640625 -12.617188 C 4.78125 -12.320312 4.578125 -11.050781 2.976562 -8.183594 C 2.335938 -7.054688 1.628906 -5.972656 0.863281 -4.90625 C 0.832031 -4.859375 0.769531 -4.84375 0.707031 -4.875 C 0.660156 -4.90625 0.628906 -4.96875 0.644531 -5.015625 C 1.535156 -8.636719 3.605469 -12.523438 4.40625 -12.648438 Z M 4.40625 -12.648438 "/></g></g></g><g fill="#b4993c" fill-opacity="1"><g transform="translate(138.800741, 227.124491)"><g><path d="M 14.828125 -3.589844 C 14.75 -3.667969 14.65625 -3.699219 14.546875 -3.714844 C 14.4375 -3.714844 14.328125 -3.667969 14.25 -3.589844 C 11.882812 -1.269531 8.433594 -0.46875 6.992188 -0.925781 C 5.769531 -1.316406 5.203125 -2.429688 4.953125 -3.605469 C 4.90625 -3.871094 4.953125 -4.121094 5.09375 -4.34375 C 6.976562 -7.539062 8.964844 -12.148438 8.277344 -13.261719 C 8.121094 -13.511719 7.835938 -13.636719 7.539062 -13.589844 C 5.800781 -13.371094 4.3125 -9.765625 4.011719 -6.550781 C 3.949219 -5.863281 3.949219 -5.1875 3.996094 -4.515625 C 4.011719 -4.296875 3.964844 -4.074219 3.839844 -3.886719 C 3.746094 -3.730469 3.636719 -3.558594 3.527344 -3.402344 C 2.148438 -1.363281 1.207031 -0.707031 0.816406 -0.753906 C 0.609375 -0.769531 0.4375 -0.910156 0.390625 -1.097656 C 0.234375 -1.898438 0.421875 -2.710938 0.878906 -3.371094 C 1.207031 -3.761719 1.691406 -4.199219 2.164062 -4.105469 C 2.429688 -4.027344 2.648438 -3.824219 2.757812 -3.574219 C 2.804688 -3.355469 3.007812 -3.199219 3.230469 -3.230469 C 3.449219 -3.261719 3.605469 -3.464844 3.574219 -3.699219 C 3.417969 -4.261719 2.992188 -4.703125 2.429688 -4.875 C 1.945312 -5.03125 1.160156 -4.96875 0.25 -3.902344 C -0.25 -3.324219 -0.753906 -1.785156 -0.375 -0.800781 C -0.21875 -0.328125 0.203125 0 0.691406 0.0625 C 0.738281 0.0625 0.800781 0.0625 0.847656 0.0625 C 1.675781 0.0625 2.726562 -0.832031 3.964844 -2.601562 C 4.011719 -2.664062 4.105469 -2.710938 4.199219 -2.695312 C 4.296875 -2.695312 4.375 -2.632812 4.40625 -2.554688 C 4.75 -1.410156 5.628906 -0.515625 6.742188 -0.140625 C 8.589844 0.4375 12.351562 -0.59375 14.828125 -3.007812 C 14.984375 -3.167969 14.984375 -3.417969 14.828125 -3.589844 Z M 4.84375 -6.472656 C 5.09375 -9.34375 6.238281 -11.867188 7.210938 -12.585938 C 7.289062 -12.632812 7.398438 -12.648438 7.492188 -12.585938 C 7.570312 -12.539062 7.617188 -12.445312 7.617188 -12.351562 C 7.476562 -11.160156 6.628906 -9.011719 5.0625 -6.222656 C 4.8125 -5.816406 4.8125 -6.191406 4.84375 -6.472656 Z M 4.84375 -6.472656 "/></g></g></g><g fill="#b4993c" fill-opacity="1"><g transform="translate(153.058648, 227.124491)"><g><path d="M 11.425781 -4.453125 C 11.347656 -4.53125 11.253906 -4.5625 11.144531 -4.5625 C 11.035156 -4.5625 10.925781 -4.53125 10.847656 -4.453125 C 8.964844 -2.570312 6.300781 -1.707031 3.683594 -2.148438 C 3.480469 -2.195312 3.339844 -2.382812 3.371094 -2.585938 C 3.496094 -3.339844 3.433594 -4.105469 2.992188 -4.359375 C 2.710938 -4.515625 2.289062 -4.53125 1.785156 -3.683594 C 1.597656 -3.402344 1.535156 -3.054688 1.597656 -2.726562 C 1.675781 -2.398438 1.882812 -2.101562 2.164062 -1.929688 C 2.335938 -1.785156 2.132812 -1.550781 2.023438 -1.441406 C 1.722656 -1.082031 1.207031 -1.019531 0.847656 -1.300781 C 0.390625 -1.503906 0.1875 -2.007812 0.359375 -2.460938 C 0.5625 -3.292969 1.378906 -4.011719 1.675781 -4.011719 C 1.898438 -4.011719 2.085938 -4.199219 2.085938 -4.421875 C 2.101562 -4.640625 1.914062 -4.828125 1.691406 -4.84375 L 1.675781 -4.84375 C 0.894531 -4.84375 -0.15625 -3.777344 -0.4375 -2.664062 C -0.707031 -1.851562 -0.328125 -0.957031 0.453125 -0.578125 C 0.753906 -0.40625 1.082031 -0.328125 1.425781 -0.3125 C 2.101562 -0.34375 2.695312 -0.753906 2.976562 -1.378906 C 3.007812 -1.425781 3.089844 -1.457031 3.152344 -1.441406 C 5.140625 -0.847656 8.777344 -1.222656 11.425781 -3.855469 C 11.503906 -3.933594 11.550781 -4.042969 11.550781 -4.152344 C 11.550781 -4.261719 11.503906 -4.375 11.425781 -4.453125 Z M 2.554688 -2.664062 C 2.382812 -2.820312 2.351562 -3.074219 2.492188 -3.261719 C 2.539062 -3.339844 2.570312 -3.386719 2.601562 -3.433594 C 2.617188 -3.183594 2.601562 -2.914062 2.554688 -2.664062 Z M 2.554688 -2.664062 "/></g></g></g><g fill="#b4993c" fill-opacity="1"><g transform="translate(163.885261, 227.124491)"><g><path d="M 10.785156 -4.011719 C 10.707031 -4.089844 10.597656 -4.136719 10.488281 -4.136719 C 10.375 -4.136719 10.265625 -4.089844 10.1875 -4.011719 C 10.15625 -3.980469 6.035156 0.078125 3.074219 -0.816406 C 2.023438 -1.128906 1.441406 -2.132812 1.113281 -3.199219 C 1.019531 -3.542969 1.050781 -3.917969 1.207031 -4.246094 C 2.304688 -6.472656 5 -12.304688 3.667969 -13.730469 C 3.355469 -14.125 2.835938 -14.25 2.382812 -14.058594 C 0.800781 -13.371094 -0.25 -8.746094 -0.0625 -5.375 C -0.03125 -4.859375 0.03125 -4.34375 0.125 -3.824219 C 0.125 -3.761719 0.125 -3.714844 0.15625 -3.667969 C 0.5625 -1.691406 1.488281 -0.421875 2.835938 -0.03125 C 3.214844 0.078125 3.589844 0.140625 3.964844 0.140625 C 7.148438 0.140625 10.613281 -3.277344 10.769531 -3.433594 C 10.847656 -3.511719 10.894531 -3.605469 10.894531 -3.714844 C 10.894531 -3.839844 10.863281 -3.933594 10.785156 -4.011719 Z M 0.800781 -5.613281 C 0.3125 -8.230469 1.929688 -12.980469 2.710938 -13.308594 C 2.742188 -13.324219 2.773438 -13.339844 2.804688 -13.339844 C 2.867188 -13.339844 2.945312 -13.308594 3.054688 -13.183594 C 3.683594 -12.523438 1.898438 -6.851562 1.066406 -5.519531 C 0.988281 -5.375 0.832031 -5.453125 0.800781 -5.613281 Z M 0.800781 -5.613281 "/></g></g></g><g fill="#b4993c" fill-opacity="1"><g transform="translate(174.210498, 227.124491)"><g><path d="M 10.785156 -4.011719 C 10.707031 -4.089844 10.597656 -4.136719 10.488281 -4.136719 C 10.375 -4.136719 10.265625 -4.089844 10.1875 -4.011719 C 10.15625 -3.980469 6.035156 0.078125 3.074219 -0.816406 C 2.023438 -1.128906 1.441406 -2.132812 1.113281 -3.199219 C 1.019531 -3.542969 1.050781 -3.917969 1.207031 -4.246094 C 2.304688 -6.472656 5 -12.304688 3.667969 -13.730469 C 3.355469 -14.125 2.835938 -14.25 2.382812 -14.058594 C 0.800781 -13.371094 -0.25 -8.746094 -0.0625 -5.375 C -0.03125 -4.859375 0.03125 -4.34375 0.125 -3.824219 C 0.125 -3.761719 0.125 -3.714844 0.15625 -3.667969 C 0.5625 -1.691406 1.488281 -0.421875 2.835938 -0.03125 C 3.214844 0.078125 3.589844 0.140625 3.964844 0.140625 C 7.148438 0.140625 10.613281 -3.277344 10.769531 -3.433594 C 10.847656 -3.511719 10.894531 -3.605469 10.894531 -3.714844 C 10.894531 -3.839844 10.863281 -3.933594 10.785156 -4.011719 Z M 0.800781 -5.613281 C 0.3125 -8.230469 1.929688 -12.980469 2.710938 -13.308594 C 2.742188 -13.324219 2.773438 -13.339844 2.804688 -13.339844 C 2.867188 -13.339844 2.945312 -13.308594 3.054688 -13.183594 C 3.683594 -12.523438 1.898438 -6.851562 1.066406 -5.519531 C 0.988281 -5.375 0.832031 -5.453125 0.800781 -5.613281 Z M 0.800781 -5.613281 "/></g></g></g><g fill="#b4993c" fill-opacity="1"><g transform="translate(184.535734, 227.124491)"><g><path d="M 13.105469 -3.792969 C 12.949219 -3.964844 12.679688 -3.980469 12.507812 -3.824219 C 12.460938 -3.777344 7.804688 0.40625 4.921875 -1.488281 C 3.777344 -2.242188 3.496094 -4.058594 3.496094 -4.074219 C 3.480469 -4.261719 3.339844 -4.40625 3.152344 -4.4375 C 2.976562 -4.453125 2.789062 -4.359375 2.710938 -4.199219 C 1.976562 -2.570312 0.675781 -0.5 0.3125 -0.738281 C 0.28125 -0.738281 0.21875 -0.800781 0.171875 -0.910156 C -0.015625 -1.425781 0.046875 -1.992188 0.3125 -2.476562 C 0.910156 -3.699219 2.007812 -4.578125 3.324219 -4.90625 C 3.464844 -4.9375 3.574219 -5.046875 3.621094 -5.1875 C 3.667969 -5.328125 3.621094 -5.484375 3.527344 -5.597656 C 3.417969 -5.691406 3.277344 -5.738281 3.136719 -5.707031 C 1.566406 -5.328125 0.265625 -4.261719 -0.4375 -2.820312 C -0.816406 -2.117188 -0.863281 -1.269531 -0.5625 -0.53125 C -0.421875 -0.171875 -0.078125 0.078125 0.3125 0.078125 L 0.328125 0.078125 C 1.097656 0.0625 2.054688 -0.894531 2.710938 -1.929688 C 2.789062 -2.054688 2.929688 -2.117188 3.074219 -2.101562 C 3.214844 -2.101562 3.339844 -2.023438 3.402344 -1.898438 C 3.667969 -1.457031 4.027344 -1.082031 4.46875 -0.816406 C 7.882812 1.457031 12.851562 -3.023438 13.074219 -3.214844 C 13.152344 -3.292969 13.199219 -3.402344 13.199219 -3.496094 C 13.214844 -3.605469 13.167969 -3.714844 13.105469 -3.792969 Z M 13.105469 -3.792969 "/></g></g></g><g fill="#b4993c" fill-opacity="1"><g transform="translate(197.195509, 227.124491)"><g><path d="M 12.367188 -3.746094 C 12.210938 -3.917969 11.960938 -3.933594 11.789062 -3.777344 C 11.757812 -3.761719 8.527344 -0.941406 6.160156 -1.316406 C 5.453125 -1.425781 4.84375 -1.851562 4.5 -2.476562 C 4.199219 -3.023438 3.652344 -3.371094 3.039062 -3.433594 C 2.273438 -3.480469 1.425781 -3.023438 0.53125 -2.085938 C 0.484375 -2.039062 0.40625 -2.023438 0.34375 -2.054688 C 0.28125 -2.085938 0.25 -2.148438 0.265625 -2.226562 C 0.3125 -2.523438 0.453125 -3.277344 0.515625 -3.558594 C 0.515625 -3.511719 0.628906 -3.730469 0.628906 -3.746094 C 1.960938 -5.566406 5.941406 -11.332031 4.390625 -13.183594 C 4.183594 -13.464844 3.808594 -13.589844 3.464844 -13.496094 C 3.152344 -13.402344 2.195312 -13.105469 0.722656 -7.867188 C 0.359375 -6.597656 0.03125 -5.234375 -0.234375 -3.949219 L -0.34375 -3.808594 C -0.453125 -3.667969 -0.453125 -3.480469 -0.359375 -3.324219 C -0.59375 -2.164062 -0.753906 -1.097656 -0.832031 -0.28125 C -0.847656 -0.09375 -0.738281 0.078125 -0.5625 0.140625 C -0.390625 0.203125 -0.1875 0.140625 -0.078125 -0.015625 C 1.519531 -2.335938 2.539062 -2.632812 2.992188 -2.617188 C 3.324219 -2.585938 3.621094 -2.382812 3.777344 -2.085938 C 4.246094 -1.238281 5.078125 -0.644531 6.050781 -0.5 C 8.777344 -0.078125 12.179688 -3.039062 12.335938 -3.167969 C 12.492188 -3.324219 12.507812 -3.574219 12.367188 -3.746094 Z M 3.699219 -12.710938 C 3.730469 -12.710938 3.746094 -12.664062 3.761719 -12.648438 C 4.515625 -11.804688 1.394531 -5.5 1.003906 -5.753906 C 0.628906 -5.988281 3.039062 -12.710938 3.699219 -12.710938 Z M 3.699219 -12.710938 "/></g></g></g><g fill="#b4993c" fill-opacity="1"><g transform="translate(209.040543, 227.124491)"><g/></g></g><g fill="#b4993c" fill-opacity="1"><g transform="translate(214.869053, 227.124491)"><g><path d="M 15.519531 -5.0625 C 16.316406 -6.488281 16.425781 -7.726562 15.832031 -8.621094 C 15.316406 -9.359375 14.40625 -9.6875 13.527344 -9.484375 C 11.238281 -9.136719 8.464844 -6.691406 7.820312 -4.46875 C 7.414062 -3.355469 7.757812 -2.117188 8.652344 -1.363281 C 8.761719 -1.253906 8.917969 -1.222656 9.058594 -1.269531 C 9.203125 -1.316406 9.3125 -1.441406 9.34375 -1.582031 C 9.359375 -1.738281 9.3125 -1.882812 9.203125 -1.976562 C 8.542969 -2.523438 8.308594 -3.433594 8.605469 -4.230469 C 9.203125 -6.300781 11.882812 -8.402344 13.652344 -8.667969 C 14.203125 -8.824219 14.796875 -8.636719 15.140625 -8.167969 C 15.660156 -7.382812 15.25 -6.253906 14.796875 -5.46875 C 13.152344 -2.492188 8.371094 1.003906 4.984375 0.910156 C 3.683594 0.925781 2.492188 0.171875 1.960938 -1.019531 C 1.285156 -2.429688 1.550781 -3.964844 2.773438 -5.597656 C 5.28125 -8.980469 10.878906 -11.425781 12.933594 -11.082031 C 13.152344 -11.050781 13.371094 -11.191406 13.417969 -11.410156 C 13.449219 -11.628906 13.308594 -11.851562 13.089844 -11.898438 C 12.039062 -12.117188 9.167969 -12.996094 8.574219 -14.265625 C 8.417969 -14.609375 8.433594 -15 8.621094 -15.332031 C 9.234375 -16.472656 11.050781 -16.789062 12.492188 -16.601562 C 14.09375 -16.378906 15.25 -15.644531 15.457031 -14.703125 C 15.488281 -14.546875 15.597656 -14.4375 15.738281 -14.390625 C 15.878906 -14.34375 16.035156 -14.375 16.144531 -14.46875 C 16.253906 -14.578125 16.300781 -14.734375 16.253906 -14.875 C 15.988281 -16.160156 14.546875 -17.148438 12.601562 -17.414062 C 10.832031 -17.648438 8.699219 -17.210938 7.898438 -15.707031 C 7.585938 -15.15625 7.554688 -14.5 7.820312 -13.917969 C 8.214844 -13.089844 9.203125 -12.445312 10.203125 -11.992188 C 10.296875 -11.945312 10.34375 -11.851562 10.34375 -11.742188 C 10.34375 -11.648438 10.265625 -11.550781 10.171875 -11.519531 C 7.398438 -10.675781 3.949219 -8.558594 2.101562 -6.082031 C 0.722656 -4.214844 0.40625 -2.335938 1.222656 -0.660156 C 1.882812 0.800781 3.339844 1.738281 4.953125 1.722656 C 5 1.722656 5.0625 1.722656 5.109375 1.722656 C 8.855469 1.722656 13.746094 -1.882812 15.519531 -5.0625 Z M 15.519531 -5.0625 "/></g></g></g><g fill="#b4993c" fill-opacity="1"><g transform="translate(231.539844, 227.124491)"><g><path d="M 11.898438 -3.917969 C 11.820312 -3.996094 11.710938 -4.042969 11.597656 -4.042969 C 11.488281 -4.042969 11.394531 -4.011719 11.316406 -3.933594 C 8.996094 -1.707031 5.613281 -2.460938 3.339844 -3.730469 C 3.292969 -3.902344 3.214844 -4.058594 3.105469 -4.199219 C 2.804688 -4.546875 2.320312 -4.671875 1.914062 -4.484375 C 1.769531 -4.4375 1.660156 -4.3125 1.644531 -4.152344 C 1.613281 -4.011719 1.675781 -3.855469 1.800781 -3.761719 C 1.929688 -3.667969 2.070312 -3.558594 2.226562 -3.464844 C 2.492188 -3.292969 2.632812 -2.992188 2.585938 -2.679688 C 2.523438 -2.273438 2.398438 -1.882812 2.179688 -1.519531 C 2.070312 -1.316406 1.914062 -1.144531 1.722656 -0.988281 C 1.472656 -0.800781 1.144531 -0.753906 0.847656 -0.878906 C 0.546875 -0.988281 0.34375 -1.253906 0.28125 -1.566406 C 0.21875 -2.023438 0.21875 -2.492188 0.265625 -2.960938 C 0.28125 -2.960938 0.296875 -2.976562 0.3125 -2.992188 C 1.691406 -4.214844 6.222656 -11.175781 5.375 -12.964844 C 5.171875 -13.371094 4.71875 -13.574219 4.277344 -13.464844 C 2.617188 -13.199219 0.109375 -7.273438 -0.4375 -3.855469 C -0.785156 -1.753906 -0.515625 -0.453125 0.359375 0.03125 L 0.515625 0.078125 C 0.660156 0.109375 0.800781 0.125 0.941406 0.125 C 1.753906 0.09375 2.507812 -0.359375 2.882812 -1.097656 C 3.074219 -1.394531 3.214844 -1.738281 3.308594 -2.085938 C 3.339844 -2.242188 3.464844 -2.382812 3.605469 -2.445312 C 3.761719 -2.523438 3.933594 -2.523438 4.074219 -2.460938 C 6.503906 -1.441406 9.609375 -1.160156 11.882812 -3.339844 C 11.960938 -3.417969 12.007812 -3.527344 12.007812 -3.621094 C 12.007812 -3.730469 11.976562 -3.839844 11.898438 -3.917969 Z M 4.40625 -12.648438 C 4.4375 -12.648438 4.484375 -12.648438 4.515625 -12.648438 C 4.609375 -12.648438 4.625 -12.617188 4.640625 -12.617188 C 4.78125 -12.320312 4.578125 -11.050781 2.976562 -8.183594 C 2.335938 -7.054688 1.628906 -5.972656 0.863281 -4.90625 C 0.832031 -4.859375 0.769531 -4.84375 0.707031 -4.875 C 0.660156 -4.90625 0.628906 -4.96875 0.644531 -5.015625 C 1.535156 -8.636719 3.605469 -12.523438 4.40625 -12.648438 Z M 4.40625 -12.648438 "/></g></g></g><g fill="#b4993c" fill-opacity="1"><g transform="translate(242.867834, 227.124491)"><g><path d="M 13.105469 -3.792969 C 12.949219 -3.964844 12.679688 -3.980469 12.507812 -3.824219 C 12.460938 -3.777344 7.804688 0.40625 4.921875 -1.488281 C 3.777344 -2.242188 3.496094 -4.058594 3.496094 -4.074219 C 3.480469 -4.261719 3.339844 -4.40625 3.152344 -4.4375 C 2.976562 -4.453125 2.789062 -4.359375 2.710938 -4.199219 C 1.976562 -2.570312 0.675781 -0.5 0.3125 -0.738281 C 0.28125 -0.738281 0.21875 -0.800781 0.171875 -0.910156 C -0.015625 -1.425781 0.046875 -1.992188 0.3125 -2.476562 C 0.910156 -3.699219 2.007812 -4.578125 3.324219 -4.90625 C 3.464844 -4.9375 3.574219 -5.046875 3.621094 -5.1875 C 3.667969 -5.328125 3.621094 -5.484375 3.527344 -5.597656 C 3.417969 -5.691406 3.277344 -5.738281 3.136719 -5.707031 C 1.566406 -5.328125 0.265625 -4.261719 -0.4375 -2.820312 C -0.816406 -2.117188 -0.863281 -1.269531 -0.5625 -0.53125 C -0.421875 -0.171875 -0.078125 0.078125 0.3125 0.078125 L 0.328125 0.078125 C 1.097656 0.0625 2.054688 -0.894531 2.710938 -1.929688 C 2.789062 -2.054688 2.929688 -2.117188 3.074219 -2.101562 C 3.214844 -2.101562 3.339844 -2.023438 3.402344 -1.898438 C 3.667969 -1.457031 4.027344 -1.082031 4.46875 -0.816406 C 7.882812 1.457031 12.851562 -3.023438 13.074219 -3.214844 C 13.152344 -3.292969 13.199219 -3.402344 13.199219 -3.496094 C 13.214844 -3.605469 13.167969 -3.714844 13.105469 -3.792969 Z M 13.105469 -3.792969 "/></g></g></g><g fill="#b4993c" fill-opacity="1"><g transform="translate(255.527609, 227.124491)"><g><path d="M 14.828125 -3.589844 C 14.75 -3.667969 14.65625 -3.699219 14.546875 -3.714844 C 14.4375 -3.714844 14.328125 -3.667969 14.25 -3.589844 C 11.882812 -1.269531 8.433594 -0.46875 6.992188 -0.925781 C 5.769531 -1.316406 5.203125 -2.429688 4.953125 -3.605469 C 4.90625 -3.871094 4.953125 -4.121094 5.09375 -4.34375 C 6.976562 -7.539062 8.964844 -12.148438 8.277344 -13.261719 C 8.121094 -13.511719 7.835938 -13.636719 7.539062 -13.589844 C 5.800781 -13.371094 4.3125 -9.765625 4.011719 -6.550781 C 3.949219 -5.863281 3.949219 -5.1875 3.996094 -4.515625 C 4.011719 -4.296875 3.964844 -4.074219 3.839844 -3.886719 C 3.746094 -3.730469 3.636719 -3.558594 3.527344 -3.402344 C 2.148438 -1.363281 1.207031 -0.707031 0.816406 -0.753906 C 0.609375 -0.769531 0.4375 -0.910156 0.390625 -1.097656 C 0.234375 -1.898438 0.421875 -2.710938 0.878906 -3.371094 C 1.207031 -3.761719 1.691406 -4.199219 2.164062 -4.105469 C 2.429688 -4.027344 2.648438 -3.824219 2.757812 -3.574219 C 2.804688 -3.355469 3.007812 -3.199219 3.230469 -3.230469 C 3.449219 -3.261719 3.605469 -3.464844 3.574219 -3.699219 C 3.417969 -4.261719 2.992188 -4.703125 2.429688 -4.875 C 1.945312 -5.03125 1.160156 -4.96875 0.25 -3.902344 C -0.25 -3.324219 -0.753906 -1.785156 -0.375 -0.800781 C -0.21875 -0.328125 0.203125 0 0.691406 0.0625 C 0.738281 0.0625 0.800781 0.0625 0.847656 0.0625 C 1.675781 0.0625 2.726562 -0.832031 3.964844 -2.601562 C 4.011719 -2.664062 4.105469 -2.710938 4.199219 -2.695312 C 4.296875 -2.695312 4.375 -2.632812 4.40625 -2.554688 C 4.75 -1.410156 5.628906 -0.515625 6.742188 -0.140625 C 8.589844 0.4375 12.351562 -0.59375 14.828125 -3.007812 C 14.984375 -3.167969 14.984375 -3.417969 14.828125 -3.589844 Z M 4.84375 -6.472656 C 5.09375 -9.34375 6.238281 -11.867188 7.210938 -12.585938 C 7.289062 -12.632812 7.398438 -12.648438 7.492188 -12.585938 C 7.570312 -12.539062 7.617188 -12.445312 7.617188 -12.351562 C 7.476562 -11.160156 6.628906 -9.011719 5.0625 -6.222656 C 4.8125 -5.816406 4.8125 -6.191406 4.84375 -6.472656 Z M 4.84375 -6.472656 "/></g></g></g><g fill="#b4993c" fill-opacity="1"><g transform="translate(269.785516, 227.124491)"><g><path d="M 10.15625 -4.230469 C 9.984375 -4.390625 9.734375 -4.390625 9.578125 -4.214844 C 9.515625 -4.167969 4.4375 1.003906 1.066406 -1.457031 C 0.03125 -2.210938 1.035156 -4.167969 1.050781 -4.183594 C 1.144531 -4.390625 1.066406 -4.625 0.863281 -4.734375 C 0.660156 -4.828125 0.421875 -4.765625 0.3125 -4.5625 C 0.25 -4.46875 -1.019531 -1.976562 0.578125 -0.800781 C 1.316406 -0.25 2.226562 0.046875 3.152344 0.03125 C 6.535156 0.03125 9.96875 -3.464844 10.15625 -3.652344 C 10.234375 -3.730469 10.28125 -3.824219 10.28125 -3.933594 C 10.265625 -4.042969 10.234375 -4.152344 10.15625 -4.230469 Z M 0.140625 -5.46875 C 0.203125 -5.46875 0.265625 -5.484375 0.328125 -5.519531 C 0.707031 -5.707031 1.035156 -5.957031 1.332031 -6.253906 C 1.488281 -6.425781 1.472656 -6.675781 1.316406 -6.835938 C 1.144531 -6.992188 0.894531 -6.992188 0.738281 -6.820312 C 0.5 -6.582031 0.234375 -6.394531 -0.0625 -6.238281 C -0.21875 -6.160156 -0.3125 -5.957031 -0.265625 -5.785156 C -0.21875 -5.597656 -0.046875 -5.46875 0.140625 -5.46875 Z M 0.140625 -5.46875 "/></g></g></g></svg>