<svg xmlns="http://www.w3.org/2000/svg" xmlns:xlink="http://www.w3.org/1999/xlink" width="500" zoomAndPan="magnify" viewBox="0 0 375 374.999991" height="500" preserveAspectRatio="xMidYMid meet" version="1.0"><defs><g/><clipPath id="7efe653c3c"><path d="M 33.507812 200.605469 L 350.742188 200.605469 L 350.742188 244.820312 L 33.507812 244.820312 Z M 33.507812 200.605469 " clip-rule="nonzero"/></clipPath></defs><g fill="#211951" fill-opacity="1"><g transform="translate(176.410085, 273.355588)"><g><path d="M 6.359375 0 L 6.359375 -1.8125 L 10.1875 -1.8125 C 14.425781 -1.8125 17.726562 -2.78125 20.09375 -4.71875 C 22.457031 -6.664062 23.640625 -9.878906 23.640625 -14.359375 L 23.640625 -115.796875 C 23.640625 -120.160156 22.457031 -123.28125 20.09375 -125.15625 C 17.726562 -127.039062 14.425781 -127.984375 10.1875 -127.984375 L 6.359375 -127.984375 L 6.359375 -129.796875 L 100.359375 -129.796875 L 101.4375 -97.625 L 99.625 -97.625 L 99.265625 -103.625 C 98.660156 -112.71875 96.382812 -119.050781 92.4375 -122.625 C 88.5 -126.195312 81.925781 -127.984375 72.71875 -127.984375 L 44.90625 -127.984375 L 44.90625 -68.90625 L 89.8125 -68.90625 L 89.8125 -67.078125 L 44.90625 -67.078125 L 44.90625 -1.8125 L 77.625 -1.8125 C 87.320312 -1.8125 94.226562 -3.597656 98.34375 -7.171875 C 102.46875 -10.753906 104.832031 -17.085938 105.4375 -26.171875 L 105.8125 -32.171875 L 107.625 -32.171875 L 106.34375 0 Z M 6.359375 0 "/></g></g></g><g fill="#211951" fill-opacity="1"><g transform="translate(68.055711, 216.929235)"><g><path d="M 0.1875 0 L 0.1875 -1.8125 L 6 -1.8125 C 9.757812 -1.8125 12.726562 -2.84375 14.90625 -4.90625 C 17.082031 -6.96875 19.082031 -10.601562 20.90625 -15.8125 L 61.265625 -129.796875 L 72.90625 -129.796875 L 117.078125 -12.359375 C 118.648438 -8.359375 120.285156 -5.597656 121.984375 -4.078125 C 123.679688 -2.566406 125.925781 -1.8125 128.71875 -1.8125 L 130.53125 -1.8125 L 130.53125 0 L 77.8125 0 L 77.8125 -1.8125 L 83.625 -1.8125 C 87.75 -1.8125 90.71875 -2.328125 92.53125 -3.359375 C 94.351562 -4.390625 95.265625 -6.238281 95.265625 -8.90625 C 95.265625 -9.875 95.140625 -11.054688 94.890625 -12.453125 C 94.648438 -13.847656 94.226562 -15.394531 93.625 -17.09375 L 82.71875 -47.265625 L 34.171875 -47.265625 L 24 -18.71875 C 23.394531 -16.90625 22.910156 -15.300781 22.546875 -13.90625 C 22.179688 -12.507812 22 -11.207031 22 -10 C 22 -6.96875 23.238281 -4.84375 25.71875 -3.625 C 28.207031 -2.414062 32.238281 -1.8125 37.8125 -1.8125 L 44.359375 -1.8125 L 44.359375 0 Z M 34.71875 -49.078125 L 81.984375 -49.078125 L 69.265625 -83.984375 C 67.203125 -89.679688 65.203125 -95.410156 63.265625 -101.171875 C 61.328125 -106.929688 59.75 -112.234375 58.53125 -117.078125 C 56.84375 -111.984375 55.175781 -107.132812 53.53125 -102.53125 C 51.894531 -97.925781 50.050781 -92.65625 48 -86.71875 Z M 34.71875 -49.078125 "/></g></g></g><g clip-path="url(#7efe653c3c)"><path fill="#f0f3ff" d="M 33.507812 200.605469 L 350.777344 200.605469 L 350.777344 244.820312 L 33.507812 244.820312 Z M 33.507812 200.605469 " fill-opacity="1" fill-rule="nonzero"/></g><g fill="#211951" fill-opacity="1"><g transform="translate(97.890884, 226.855576)"><g><path d="M 20.652344 -4.832031 C 21.386719 -6.078125 21.867188 -5.773438 22.910156 -5.535156 C 24.15625 -5.054688 25.324219 -4.605469 26.378906 -4.222656 C 26.714844 -4.09375 26.941406 -3.824219 26.988281 -3.472656 C 27.257812 -1.503906 27.675781 -0.464844 28.316406 -0.257812 C 28.425781 -0.207031 28.539062 -0.222656 28.636719 -0.273438 C 28.730469 -0.320312 28.8125 -0.414062 28.84375 -0.511719 C 28.90625 -0.734375 28.796875 -0.976562 28.570312 -1.054688 C 28.300781 -1.152344 28.089844 -1.792969 27.929688 -2.765625 C 27.882812 -2.976562 27.964844 -3.183594 28.125 -3.3125 C 28.269531 -3.441406 28.492188 -3.488281 28.683594 -3.421875 C 29.769531 -3.023438 30.921875 -2.785156 32.089844 -2.71875 C 32.1875 -2.71875 32.300781 -2.765625 32.378906 -2.847656 C 32.457031 -2.925781 32.492188 -3.039062 32.492188 -3.152344 C 32.492188 -3.261719 32.441406 -3.375 32.363281 -3.441406 C 32.28125 -3.519531 32.171875 -3.566406 32.058594 -3.566406 C 30.761719 -3.664062 29.5 -3.96875 28.285156 -4.449219 C 27.929688 -4.558594 27.675781 -4.878906 27.644531 -5.246094 C 27.386719 -8.589844 27.355469 -13.085938 27.339844 -15.597656 C 27.324219 -19.101562 27.292969 -20.460938 27.132812 -20.84375 C 27.066406 -21.019531 26.90625 -21.132812 26.730469 -21.117188 C 26.539062 -21.101562 26.394531 -20.972656 26.347656 -20.796875 C 25.402344 -17.390625 24.234375 -14.046875 22.84375 -10.796875 C 22.378906 -9.742188 21.933594 -8.78125 21.46875 -7.886719 C 21.261719 -7.472656 20.75 -7.277344 20.316406 -7.4375 C 15.070312 -9.453125 9.070312 -11.613281 4.480469 -11.964844 C 2.703125 -12.09375 1.550781 -11.773438 1.054688 -11.023438 C 0.640625 -10.382812 0.71875 -9.535156 1.28125 -8.496094 C 3.039062 -5.277344 9.824219 -0.160156 14.574219 -0.160156 C 16.8125 -0.160156 18.878906 -2.128906 20.652344 -4.832031 Z M 3.695312 -11.148438 C 3.917969 -11.148438 4.160156 -11.148438 4.414062 -11.132812 C 8.78125 -10.796875 14.527344 -8.765625 19.613281 -6.816406 C 19.867188 -6.71875 20.078125 -6.496094 20.15625 -6.238281 C 20.253906 -5.96875 20.203125 -5.679688 20.0625 -5.4375 C 18.1875 -2.511719 16.332031 -1.007812 14.574219 -1.007812 C 10.476562 -1.007812 3.824219 -5.582031 2.015625 -8.894531 C 1.742188 -9.40625 1.472656 -10.109375 1.757812 -10.558594 C 2 -10.941406 2.6875 -11.148438 3.695312 -11.148438 Z M 26.171875 -17.292969 C 26.285156 -17.628906 26.492188 -17.566406 26.492188 -17.199219 C 26.492188 -16.683594 26.492188 -16.140625 26.507812 -15.597656 C 26.523438 -11.664062 26.585938 -8.527344 26.730469 -6.144531 C 26.765625 -5.871094 26.636719 -5.632812 26.429688 -5.472656 C 26.21875 -5.3125 25.949219 -5.277344 25.707031 -5.375 C 24.699219 -5.757812 23.613281 -6.175781 22.492188 -6.605469 L 21.867188 -6.847656 C 23.613281 -10.191406 25.050781 -13.695312 26.171875 -17.292969 Z M 26.171875 -17.292969 "/></g></g></g><g fill="#211951" fill-opacity="1"><g transform="translate(131.226881, 226.855576)"><g><path d="M 12.140625 -4 C 12.0625 -4.078125 11.949219 -4.128906 11.839844 -4.128906 C 11.726562 -4.128906 11.628906 -4.09375 11.550781 -4.015625 C 9.183594 -1.742188 5.726562 -2.511719 3.40625 -3.808594 C 3.359375 -3.984375 3.28125 -4.144531 3.167969 -4.289062 C 2.863281 -4.640625 2.367188 -4.765625 1.953125 -4.574219 C 1.808594 -4.527344 1.695312 -4.398438 1.679688 -4.238281 C 1.648438 -4.09375 1.710938 -3.933594 1.839844 -3.839844 C 1.96875 -3.742188 2.113281 -3.632812 2.273438 -3.535156 C 2.542969 -3.359375 2.6875 -3.054688 2.640625 -2.734375 C 2.574219 -2.320312 2.449219 -1.917969 2.222656 -1.550781 C 2.113281 -1.34375 1.953125 -1.167969 1.757812 -1.007812 C 1.503906 -0.816406 1.167969 -0.769531 0.863281 -0.894531 C 0.558594 -1.007812 0.351562 -1.28125 0.289062 -1.601562 C 0.222656 -2.0625 0.222656 -2.542969 0.273438 -3.023438 C 0.289062 -3.023438 0.304688 -3.039062 0.320312 -3.054688 C 1.726562 -4.304688 6.351562 -11.40625 5.488281 -13.230469 C 5.277344 -13.644531 4.816406 -13.855469 4.367188 -13.742188 C 2.671875 -13.46875 0.113281 -7.421875 -0.449219 -3.933594 C -0.800781 -1.792969 -0.527344 -0.464844 0.367188 0.03125 L 0.527344 0.078125 C 0.671875 0.113281 0.816406 0.128906 0.960938 0.128906 C 1.792969 0.0976562 2.558594 -0.367188 2.945312 -1.121094 C 3.136719 -1.421875 3.28125 -1.777344 3.375 -2.128906 C 3.40625 -2.289062 3.535156 -2.429688 3.679688 -2.496094 C 3.839844 -2.574219 4.015625 -2.574219 4.160156 -2.511719 C 6.640625 -1.472656 9.804688 -1.183594 12.125 -3.40625 C 12.207031 -3.488281 12.253906 -3.597656 12.253906 -3.695312 C 12.253906 -3.808594 12.222656 -3.917969 12.140625 -4 Z M 4.496094 -12.910156 C 4.527344 -12.910156 4.574219 -12.910156 4.605469 -12.910156 C 4.703125 -12.910156 4.71875 -12.878906 4.734375 -12.878906 C 4.878906 -12.574219 4.671875 -11.277344 3.039062 -8.351562 C 2.382812 -7.199219 1.664062 -6.09375 0.878906 -5.007812 C 0.847656 -4.960938 0.785156 -4.941406 0.71875 -4.976562 C 0.671875 -5.007812 0.640625 -5.070312 0.65625 -5.121094 C 1.566406 -8.816406 3.679688 -12.78125 4.496094 -12.910156 Z M 4.496094 -12.910156 "/></g></g></g><g fill="#211951" fill-opacity="1"><g transform="translate(142.792107, 226.855576)"><g><path d="M 15.132812 -3.664062 C 15.054688 -3.742188 14.957031 -3.777344 14.84375 -3.792969 C 14.734375 -3.792969 14.621094 -3.742188 14.542969 -3.664062 C 12.125 -1.296875 8.605469 -0.480469 7.136719 -0.945312 C 5.886719 -1.34375 5.3125 -2.480469 5.054688 -3.679688 C 5.007812 -3.953125 5.054688 -4.207031 5.199219 -4.429688 C 7.117188 -7.695312 9.152344 -12.398438 8.445312 -13.535156 C 8.285156 -13.789062 8 -13.917969 7.695312 -13.871094 C 5.917969 -13.644531 4.398438 -9.964844 4.09375 -6.6875 C 4.03125 -5.984375 4.03125 -5.296875 4.078125 -4.605469 C 4.09375 -4.382812 4.046875 -4.160156 3.917969 -3.96875 C 3.824219 -3.808594 3.710938 -3.632812 3.597656 -3.472656 C 2.191406 -1.390625 1.230469 -0.71875 0.832031 -0.769531 C 0.625 -0.785156 0.449219 -0.929688 0.398438 -1.121094 C 0.238281 -1.9375 0.433594 -2.765625 0.894531 -3.441406 C 1.230469 -3.839844 1.726562 -4.289062 2.207031 -4.191406 C 2.480469 -4.113281 2.703125 -3.902344 2.816406 -3.648438 C 2.863281 -3.421875 3.070312 -3.261719 3.296875 -3.296875 C 3.519531 -3.328125 3.679688 -3.535156 3.648438 -3.777344 C 3.488281 -4.351562 3.054688 -4.800781 2.480469 -4.976562 C 1.984375 -5.136719 1.183594 -5.070312 0.257812 -3.984375 C -0.257812 -3.390625 -0.769531 -1.824219 -0.382812 -0.816406 C -0.222656 -0.335938 0.207031 0 0.703125 0.0625 C 0.75 0.0625 0.816406 0.0625 0.863281 0.0625 C 1.710938 0.0625 2.785156 -0.847656 4.046875 -2.65625 C 4.09375 -2.71875 4.191406 -2.765625 4.289062 -2.75 C 4.382812 -2.75 4.464844 -2.6875 4.496094 -2.609375 C 4.847656 -1.441406 5.742188 -0.527344 6.878906 -0.144531 C 8.765625 0.449219 12.605469 -0.609375 15.132812 -3.070312 C 15.292969 -3.230469 15.292969 -3.488281 15.132812 -3.664062 Z M 4.941406 -6.605469 C 5.199219 -9.535156 6.367188 -12.109375 7.359375 -12.847656 C 7.4375 -12.894531 7.550781 -12.910156 7.648438 -12.847656 C 7.726562 -12.796875 7.773438 -12.703125 7.773438 -12.605469 C 7.628906 -11.390625 6.765625 -9.199219 5.167969 -6.351562 C 4.910156 -5.933594 4.910156 -6.320312 4.941406 -6.605469 Z M 4.941406 -6.605469 "/></g></g></g><g fill="#211951" fill-opacity="1"><g transform="translate(157.348613, 226.855576)"><g><path d="M 11.664062 -4.542969 C 11.582031 -4.625 11.484375 -4.65625 11.375 -4.65625 C 11.261719 -4.65625 11.148438 -4.625 11.070312 -4.542969 C 9.152344 -2.625 6.429688 -1.742188 3.757812 -2.191406 C 3.550781 -2.238281 3.40625 -2.429688 3.441406 -2.640625 C 3.566406 -3.40625 3.503906 -4.191406 3.054688 -4.449219 C 2.765625 -4.605469 2.335938 -4.625 1.824219 -3.757812 C 1.632812 -3.472656 1.566406 -3.121094 1.632812 -2.785156 C 1.710938 -2.449219 1.917969 -2.144531 2.207031 -1.96875 C 2.382812 -1.824219 2.175781 -1.582031 2.0625 -1.472656 C 1.757812 -1.105469 1.230469 -1.039062 0.863281 -1.328125 C 0.398438 -1.535156 0.191406 -2.046875 0.367188 -2.511719 C 0.574219 -3.359375 1.40625 -4.09375 1.710938 -4.09375 C 1.9375 -4.09375 2.128906 -4.289062 2.128906 -4.511719 C 2.144531 -4.734375 1.953125 -4.925781 1.726562 -4.941406 L 1.710938 -4.941406 C 0.910156 -4.941406 -0.160156 -3.855469 -0.449219 -2.71875 C -0.71875 -1.886719 -0.335938 -0.976562 0.464844 -0.59375 C 0.769531 -0.414062 1.105469 -0.335938 1.457031 -0.320312 C 2.144531 -0.351562 2.75 -0.769531 3.039062 -1.40625 C 3.070312 -1.457031 3.152344 -1.488281 3.214844 -1.472656 C 5.246094 -0.863281 8.957031 -1.246094 11.664062 -3.933594 C 11.742188 -4.015625 11.789062 -4.128906 11.789062 -4.238281 C 11.789062 -4.351562 11.742188 -4.464844 11.664062 -4.542969 Z M 2.609375 -2.71875 C 2.429688 -2.878906 2.398438 -3.136719 2.542969 -3.328125 C 2.589844 -3.40625 2.625 -3.457031 2.65625 -3.503906 C 2.671875 -3.246094 2.65625 -2.976562 2.609375 -2.71875 Z M 2.609375 -2.71875 "/></g></g></g><g fill="#211951" fill-opacity="1"><g transform="translate(168.401957, 226.855576)"><g><path d="M 11.007812 -4.09375 C 10.925781 -4.175781 10.8125 -4.222656 10.703125 -4.222656 C 10.589844 -4.222656 10.476562 -4.175781 10.398438 -4.09375 C 10.367188 -4.0625 6.160156 0.078125 3.136719 -0.832031 C 2.0625 -1.152344 1.472656 -2.175781 1.136719 -3.261719 C 1.039062 -3.617188 1.070312 -4 1.230469 -4.335938 C 2.351562 -6.605469 5.101562 -12.558594 3.742188 -14.015625 C 3.421875 -14.414062 2.894531 -14.542969 2.429688 -14.351562 C 0.816406 -13.644531 -0.257812 -8.925781 -0.0625 -5.488281 C -0.03125 -4.960938 0.03125 -4.429688 0.128906 -3.902344 C 0.128906 -3.839844 0.128906 -3.792969 0.160156 -3.742188 C 0.574219 -1.726562 1.519531 -0.433594 2.894531 -0.03125 C 3.28125 0.078125 3.664062 0.144531 4.046875 0.144531 C 7.292969 0.144531 10.832031 -3.34375 10.992188 -3.503906 C 11.070312 -3.582031 11.117188 -3.679688 11.117188 -3.792969 C 11.117188 -3.917969 11.085938 -4.015625 11.007812 -4.09375 Z M 0.816406 -5.726562 C 0.320312 -8.398438 1.96875 -13.246094 2.765625 -13.582031 C 2.800781 -13.597656 2.832031 -13.613281 2.863281 -13.613281 C 2.925781 -13.613281 3.007812 -13.582031 3.121094 -13.453125 C 3.757812 -12.78125 1.9375 -6.992188 1.085938 -5.632812 C 1.007812 -5.488281 0.847656 -5.566406 0.816406 -5.726562 Z M 0.816406 -5.726562 "/></g></g></g><g fill="#211951" fill-opacity="1"><g transform="translate(178.94343, 226.855576)"><g><path d="M 11.007812 -4.09375 C 10.925781 -4.175781 10.8125 -4.222656 10.703125 -4.222656 C 10.589844 -4.222656 10.476562 -4.175781 10.398438 -4.09375 C 10.367188 -4.0625 6.160156 0.078125 3.136719 -0.832031 C 2.0625 -1.152344 1.472656 -2.175781 1.136719 -3.261719 C 1.039062 -3.617188 1.070312 -4 1.230469 -4.335938 C 2.351562 -6.605469 5.101562 -12.558594 3.742188 -14.015625 C 3.421875 -14.414062 2.894531 -14.542969 2.429688 -14.351562 C 0.816406 -13.644531 -0.257812 -8.925781 -0.0625 -5.488281 C -0.03125 -4.960938 0.03125 -4.429688 0.128906 -3.902344 C 0.128906 -3.839844 0.128906 -3.792969 0.160156 -3.742188 C 0.574219 -1.726562 1.519531 -0.433594 2.894531 -0.03125 C 3.28125 0.078125 3.664062 0.144531 4.046875 0.144531 C 7.292969 0.144531 10.832031 -3.34375 10.992188 -3.503906 C 11.070312 -3.582031 11.117188 -3.679688 11.117188 -3.792969 C 11.117188 -3.917969 11.085938 -4.015625 11.007812 -4.09375 Z M 0.816406 -5.726562 C 0.320312 -8.398438 1.96875 -13.246094 2.765625 -13.582031 C 2.800781 -13.597656 2.832031 -13.613281 2.863281 -13.613281 C 2.925781 -13.613281 3.007812 -13.582031 3.121094 -13.453125 C 3.757812 -12.78125 1.9375 -6.992188 1.085938 -5.632812 C 1.007812 -5.488281 0.847656 -5.566406 0.816406 -5.726562 Z M 0.816406 -5.726562 "/></g></g></g><g fill="#211951" fill-opacity="1"><g transform="translate(189.484903, 226.855576)"><g><path d="M 13.375 -3.871094 C 13.214844 -4.046875 12.941406 -4.0625 12.765625 -3.902344 C 12.71875 -3.855469 7.964844 0.414062 5.023438 -1.519531 C 3.855469 -2.289062 3.566406 -4.144531 3.566406 -4.160156 C 3.550781 -4.351562 3.40625 -4.496094 3.214844 -4.527344 C 3.039062 -4.542969 2.847656 -4.449219 2.765625 -4.289062 C 2.015625 -2.625 0.6875 -0.511719 0.320312 -0.75 C 0.289062 -0.75 0.222656 -0.816406 0.175781 -0.929688 C -0.015625 -1.457031 0.046875 -2.03125 0.320312 -2.527344 C 0.929688 -3.777344 2.046875 -4.671875 3.390625 -5.007812 C 3.535156 -5.039062 3.648438 -5.152344 3.695312 -5.296875 C 3.742188 -5.4375 3.695312 -5.597656 3.597656 -5.710938 C 3.488281 -5.808594 3.34375 -5.855469 3.199219 -5.824219 C 1.601562 -5.4375 0.273438 -4.351562 -0.449219 -2.878906 C -0.832031 -2.160156 -0.878906 -1.296875 -0.574219 -0.542969 C -0.433594 -0.175781 -0.078125 0.078125 0.320312 0.078125 L 0.335938 0.078125 C 1.121094 0.0625 2.09375 -0.910156 2.765625 -1.96875 C 2.847656 -2.09375 2.992188 -2.160156 3.136719 -2.144531 C 3.28125 -2.144531 3.40625 -2.0625 3.472656 -1.9375 C 3.742188 -1.488281 4.113281 -1.105469 4.558594 -0.832031 C 8.046875 1.488281 13.117188 -3.085938 13.34375 -3.28125 C 13.421875 -3.359375 13.46875 -3.472656 13.46875 -3.566406 C 13.484375 -3.679688 13.4375 -3.792969 13.375 -3.871094 Z M 13.375 -3.871094 "/></g></g></g><g fill="#211951" fill-opacity="1"><g transform="translate(202.409802, 226.855576)"><g><path d="M 12.621094 -3.824219 C 12.460938 -4 12.207031 -4.015625 12.03125 -3.855469 C 12 -3.839844 8.703125 -0.960938 6.285156 -1.34375 C 5.566406 -1.457031 4.941406 -1.886719 4.589844 -2.527344 C 4.289062 -3.085938 3.726562 -3.441406 3.101562 -3.503906 C 2.320312 -3.550781 1.457031 -3.085938 0.542969 -2.128906 C 0.496094 -2.078125 0.414062 -2.0625 0.351562 -2.09375 C 0.289062 -2.128906 0.257812 -2.191406 0.273438 -2.273438 C 0.320312 -2.574219 0.464844 -3.34375 0.527344 -3.632812 C 0.527344 -3.582031 0.640625 -3.808594 0.640625 -3.824219 C 2 -5.679688 6.0625 -11.566406 4.480469 -13.453125 C 4.269531 -13.742188 3.886719 -13.871094 3.535156 -13.773438 C 3.214844 -13.679688 2.238281 -13.375 0.734375 -8.03125 C 0.367188 -6.734375 0.03125 -5.34375 -0.238281 -4.03125 L -0.351562 -3.886719 C -0.464844 -3.742188 -0.464844 -3.550781 -0.367188 -3.390625 C -0.609375 -2.207031 -0.769531 -1.121094 -0.847656 -0.289062 C -0.863281 -0.0976562 -0.75 0.078125 -0.574219 0.144531 C -0.398438 0.207031 -0.191406 0.144531 -0.078125 -0.015625 C 1.550781 -2.382812 2.589844 -2.6875 3.054688 -2.671875 C 3.390625 -2.640625 3.695312 -2.429688 3.855469 -2.128906 C 4.335938 -1.265625 5.183594 -0.65625 6.175781 -0.511719 C 8.957031 -0.078125 12.429688 -3.101562 12.589844 -3.230469 C 12.75 -3.390625 12.765625 -3.648438 12.621094 -3.824219 Z M 3.777344 -12.972656 C 3.808594 -12.972656 3.824219 -12.925781 3.839844 -12.910156 C 4.605469 -12.046875 1.421875 -5.613281 1.023438 -5.871094 C 0.640625 -6.109375 3.101562 -12.972656 3.777344 -12.972656 Z M 3.777344 -12.972656 "/></g></g></g><g fill="#211951" fill-opacity="1"><g transform="translate(214.502899, 226.855576)"><g/></g></g><g fill="#211951" fill-opacity="1"><g transform="translate(220.453471, 226.855576)"><g><path d="M 15.835938 -5.167969 C 16.652344 -6.621094 16.765625 -7.886719 16.15625 -8.796875 C 15.628906 -9.550781 14.703125 -9.886719 13.804688 -9.679688 C 11.46875 -9.328125 8.636719 -6.832031 7.984375 -4.558594 C 7.566406 -3.421875 7.917969 -2.160156 8.832031 -1.390625 C 8.941406 -1.28125 9.101562 -1.246094 9.246094 -1.296875 C 9.390625 -1.34375 9.503906 -1.472656 9.535156 -1.617188 C 9.550781 -1.777344 9.503906 -1.917969 9.390625 -2.015625 C 8.71875 -2.574219 8.480469 -3.503906 8.78125 -4.320312 C 9.390625 -6.429688 12.125 -8.574219 13.933594 -8.847656 C 14.492188 -9.007812 15.101562 -8.816406 15.453125 -8.335938 C 15.980469 -7.535156 15.566406 -6.382812 15.101562 -5.582031 C 13.421875 -2.542969 8.542969 1.023438 5.085938 0.929688 C 3.757812 0.945312 2.542969 0.175781 2 -1.039062 C 1.3125 -2.480469 1.582031 -4.046875 2.832031 -5.710938 C 5.390625 -9.167969 11.101562 -11.664062 13.199219 -11.308594 C 13.421875 -11.277344 13.644531 -11.421875 13.695312 -11.644531 C 13.726562 -11.871094 13.582031 -12.09375 13.359375 -12.140625 C 12.285156 -12.367188 9.359375 -13.261719 8.75 -14.558594 C 8.589844 -14.910156 8.605469 -15.308594 8.796875 -15.644531 C 9.421875 -16.8125 11.277344 -17.132812 12.75 -16.941406 C 14.382812 -16.71875 15.566406 -15.964844 15.773438 -15.003906 C 15.804688 -14.84375 15.917969 -14.734375 16.0625 -14.6875 C 16.207031 -14.636719 16.367188 -14.667969 16.476562 -14.765625 C 16.589844 -14.878906 16.636719 -15.039062 16.589844 -15.179688 C 16.316406 -16.492188 14.84375 -17.5 12.863281 -17.773438 C 11.054688 -18.011719 8.878906 -17.566406 8.0625 -16.03125 C 7.742188 -15.46875 7.710938 -14.796875 7.984375 -14.207031 C 8.382812 -13.359375 9.390625 -12.703125 10.414062 -12.238281 C 10.511719 -12.191406 10.558594 -12.09375 10.558594 -11.980469 C 10.558594 -11.886719 10.476562 -11.789062 10.382812 -11.757812 C 7.550781 -10.894531 4.03125 -8.734375 2.144531 -6.207031 C 0.734375 -4.304688 0.414062 -2.382812 1.246094 -0.671875 C 1.917969 0.816406 3.40625 1.777344 5.054688 1.757812 C 5.101562 1.757812 5.167969 1.757812 5.214844 1.757812 C 9.039062 1.757812 14.03125 -1.917969 15.835938 -5.167969 Z M 15.835938 -5.167969 "/></g></g></g><g fill="#211951" fill-opacity="1"><g transform="translate(237.473387, 226.855576)"><g><path d="M 12.140625 -4 C 12.0625 -4.078125 11.949219 -4.128906 11.839844 -4.128906 C 11.726562 -4.128906 11.628906 -4.09375 11.550781 -4.015625 C 9.183594 -1.742188 5.726562 -2.511719 3.40625 -3.808594 C 3.359375 -3.984375 3.28125 -4.144531 3.167969 -4.289062 C 2.863281 -4.640625 2.367188 -4.765625 1.953125 -4.574219 C 1.808594 -4.527344 1.695312 -4.398438 1.679688 -4.238281 C 1.648438 -4.09375 1.710938 -3.933594 1.839844 -3.839844 C 1.96875 -3.742188 2.113281 -3.632812 2.273438 -3.535156 C 2.542969 -3.359375 2.6875 -3.054688 2.640625 -2.734375 C 2.574219 -2.320312 2.449219 -1.917969 2.222656 -1.550781 C 2.113281 -1.34375 1.953125 -1.167969 1.757812 -1.007812 C 1.503906 -0.816406 1.167969 -0.769531 0.863281 -0.894531 C 0.558594 -1.007812 0.351562 -1.28125 0.289062 -1.601562 C 0.222656 -2.0625 0.222656 -2.542969 0.273438 -3.023438 C 0.289062 -3.023438 0.304688 -3.039062 0.320312 -3.054688 C 1.726562 -4.304688 6.351562 -11.40625 5.488281 -13.230469 C 5.277344 -13.644531 4.816406 -13.855469 4.367188 -13.742188 C 2.671875 -13.46875 0.113281 -7.421875 -0.449219 -3.933594 C -0.800781 -1.792969 -0.527344 -0.464844 0.367188 0.03125 L 0.527344 0.078125 C 0.671875 0.113281 0.816406 0.128906 0.960938 0.128906 C 1.792969 0.0976562 2.558594 -0.367188 2.945312 -1.121094 C 3.136719 -1.421875 3.28125 -1.777344 3.375 -2.128906 C 3.40625 -2.289062 3.535156 -2.429688 3.679688 -2.496094 C 3.839844 -2.574219 4.015625 -2.574219 4.160156 -2.511719 C 6.640625 -1.472656 9.804688 -1.183594 12.125 -3.40625 C 12.207031 -3.488281 12.253906 -3.597656 12.253906 -3.695312 C 12.253906 -3.808594 12.222656 -3.917969 12.140625 -4 Z M 4.496094 -12.910156 C 4.527344 -12.910156 4.574219 -12.910156 4.605469 -12.910156 C 4.703125 -12.910156 4.71875 -12.878906 4.734375 -12.878906 C 4.878906 -12.574219 4.671875 -11.277344 3.039062 -8.351562 C 2.382812 -7.199219 1.664062 -6.09375 0.878906 -5.007812 C 0.847656 -4.960938 0.785156 -4.941406 0.71875 -4.976562 C 0.671875 -5.007812 0.640625 -5.070312 0.65625 -5.121094 C 1.566406 -8.816406 3.679688 -12.78125 4.496094 -12.910156 Z M 4.496094 -12.910156 "/></g></g></g><g fill="#211951" fill-opacity="1"><g transform="translate(249.038614, 226.855576)"><g><path d="M 13.375 -3.871094 C 13.214844 -4.046875 12.941406 -4.0625 12.765625 -3.902344 C 12.71875 -3.855469 7.964844 0.414062 5.023438 -1.519531 C 3.855469 -2.289062 3.566406 -4.144531 3.566406 -4.160156 C 3.550781 -4.351562 3.40625 -4.496094 3.214844 -4.527344 C 3.039062 -4.542969 2.847656 -4.449219 2.765625 -4.289062 C 2.015625 -2.625 0.6875 -0.511719 0.320312 -0.75 C 0.289062 -0.75 0.222656 -0.816406 0.175781 -0.929688 C -0.015625 -1.457031 0.046875 -2.03125 0.320312 -2.527344 C 0.929688 -3.777344 2.046875 -4.671875 3.390625 -5.007812 C 3.535156 -5.039062 3.648438 -5.152344 3.695312 -5.296875 C 3.742188 -5.4375 3.695312 -5.597656 3.597656 -5.710938 C 3.488281 -5.808594 3.34375 -5.855469 3.199219 -5.824219 C 1.601562 -5.4375 0.273438 -4.351562 -0.449219 -2.878906 C -0.832031 -2.160156 -0.878906 -1.296875 -0.574219 -0.542969 C -0.433594 -0.175781 -0.078125 0.078125 0.320312 0.078125 L 0.335938 0.078125 C 1.121094 0.0625 2.09375 -0.910156 2.765625 -1.96875 C 2.847656 -2.09375 2.992188 -2.160156 3.136719 -2.144531 C 3.28125 -2.144531 3.40625 -2.0625 3.472656 -1.9375 C 3.742188 -1.488281 4.113281 -1.105469 4.558594 -0.832031 C 8.046875 1.488281 13.117188 -3.085938 13.34375 -3.28125 C 13.421875 -3.359375 13.46875 -3.472656 13.46875 -3.566406 C 13.484375 -3.679688 13.4375 -3.792969 13.375 -3.871094 Z M 13.375 -3.871094 "/></g></g></g><g fill="#211951" fill-opacity="1"><g transform="translate(261.963513, 226.855576)"><g><path d="M 15.132812 -3.664062 C 15.054688 -3.742188 14.957031 -3.777344 14.84375 -3.792969 C 14.734375 -3.792969 14.621094 -3.742188 14.542969 -3.664062 C 12.125 -1.296875 8.605469 -0.480469 7.136719 -0.945312 C 5.886719 -1.34375 5.3125 -2.480469 5.054688 -3.679688 C 5.007812 -3.953125 5.054688 -4.207031 5.199219 -4.429688 C 7.117188 -7.695312 9.152344 -12.398438 8.445312 -13.535156 C 8.285156 -13.789062 8 -13.917969 7.695312 -13.871094 C 5.917969 -13.644531 4.398438 -9.964844 4.09375 -6.6875 C 4.03125 -5.984375 4.03125 -5.296875 4.078125 -4.605469 C 4.09375 -4.382812 4.046875 -4.160156 3.917969 -3.96875 C 3.824219 -3.808594 3.710938 -3.632812 3.597656 -3.472656 C 2.191406 -1.390625 1.230469 -0.71875 0.832031 -0.769531 C 0.625 -0.785156 0.449219 -0.929688 0.398438 -1.121094 C 0.238281 -1.9375 0.433594 -2.765625 0.894531 -3.441406 C 1.230469 -3.839844 1.726562 -4.289062 2.207031 -4.191406 C 2.480469 -4.113281 2.703125 -3.902344 2.816406 -3.648438 C 2.863281 -3.421875 3.070312 -3.261719 3.296875 -3.296875 C 3.519531 -3.328125 3.679688 -3.535156 3.648438 -3.777344 C 3.488281 -4.351562 3.054688 -4.800781 2.480469 -4.976562 C 1.984375 -5.136719 1.183594 -5.070312 0.257812 -3.984375 C -0.257812 -3.390625 -0.769531 -1.824219 -0.382812 -0.816406 C -0.222656 -0.335938 0.207031 0 0.703125 0.0625 C 0.75 0.0625 0.816406 0.0625 0.863281 0.0625 C 1.710938 0.0625 2.785156 -0.847656 4.046875 -2.65625 C 4.09375 -2.71875 4.191406 -2.765625 4.289062 -2.75 C 4.382812 -2.75 4.464844 -2.6875 4.496094 -2.609375 C 4.847656 -1.441406 5.742188 -0.527344 6.878906 -0.144531 C 8.765625 0.449219 12.605469 -0.609375 15.132812 -3.070312 C 15.292969 -3.230469 15.292969 -3.488281 15.132812 -3.664062 Z M 4.941406 -6.605469 C 5.199219 -9.535156 6.367188 -12.109375 7.359375 -12.847656 C 7.4375 -12.894531 7.550781 -12.910156 7.648438 -12.847656 C 7.726562 -12.796875 7.773438 -12.703125 7.773438 -12.605469 C 7.628906 -11.390625 6.765625 -9.199219 5.167969 -6.351562 C 4.910156 -5.933594 4.910156 -6.320312 4.941406 -6.605469 Z M 4.941406 -6.605469 "/></g></g></g><g fill="#211951" fill-opacity="1"><g transform="translate(276.520019, 226.855576)"><g><path d="M 10.367188 -4.320312 C 10.191406 -4.480469 9.933594 -4.480469 9.773438 -4.304688 C 9.710938 -4.253906 4.527344 1.023438 1.085938 -1.488281 C 0.03125 -2.253906 1.054688 -4.253906 1.070312 -4.269531 C 1.167969 -4.480469 1.085938 -4.71875 0.878906 -4.832031 C 0.671875 -4.925781 0.433594 -4.863281 0.320312 -4.65625 C 0.257812 -4.558594 -1.039062 -2.015625 0.59375 -0.816406 C 1.34375 -0.257812 2.273438 0.046875 3.214844 0.03125 C 6.671875 0.03125 10.175781 -3.535156 10.367188 -3.726562 C 10.445312 -3.808594 10.496094 -3.902344 10.496094 -4.015625 C 10.476562 -4.128906 10.445312 -4.238281 10.367188 -4.320312 Z M 0.144531 -5.582031 C 0.207031 -5.582031 0.273438 -5.597656 0.335938 -5.632812 C 0.71875 -5.824219 1.054688 -6.078125 1.359375 -6.382812 C 1.519531 -6.558594 1.503906 -6.816406 1.34375 -6.976562 C 1.167969 -7.136719 0.910156 -7.136719 0.75 -6.957031 C 0.511719 -6.71875 0.238281 -6.527344 -0.0625 -6.367188 C -0.222656 -6.285156 -0.320312 -6.078125 -0.273438 -5.902344 C -0.222656 -5.710938 -0.046875 -5.582031 0.144531 -5.582031 Z M 0.144531 -5.582031 "/></g></g></g></svg>